<?xml version="1.0" encoding="utf-8"?>
<!-- Generator: Adobe Illustrator 25.4.1, SVG Export Plug-In . SVG Version: 6.00 Build 0)  -->
<svg version="1.1" id="Layer_1" xmlns="http://www.w3.org/2000/svg" xmlns:xlink="http://www.w3.org/1999/xlink" x="0px" y="0px"
	 viewBox="0 0 17.2 17.2" style="enable-background:new 0 0 17.2 17.2;" xml:space="preserve">
<style type="text/css">
	.st0{fill:#9A9A9A;}
</style>
<path class="st0" d="M16.1,17.2l-6.3-6.3c-0.5,0.4-1.1,0.7-1.7,1c-0.6,0.2-1.3,0.3-2,0.3c-1.7,0-3.2-0.6-4.3-1.8S0,7.8,0,6.1
	C0,4.4,0.6,3,1.8,1.8C3,0.6,4.4,0,6.1,0c1.7,0,3.2,0.6,4.3,1.8s1.8,2.6,1.8,4.3c0,0.7-0.1,1.4-0.4,2c-0.2,0.7-0.6,1.2-1,1.7l6.3,6.3
	C17.2,16.1,16.1,17.2,16.1,17.2z M6.1,10.7c1.3,0,2.4-0.4,3.3-1.3c0.9-0.9,1.3-2,1.3-3.3s-0.4-2.4-1.3-3.3c-0.9-0.9-2-1.3-3.3-1.3
	S3.7,1.9,2.8,2.8c-0.9,0.9-1.3,2-1.3,3.3s0.4,2.4,1.3,3.3C3.7,10.3,4.8,10.7,6.1,10.7z"/>
</svg>
